<svg width="16" height="14" viewBox="0 0 16 14" fill="none" xmlns="http://www.w3.org/2000/svg">
<path d="M9.19183 11.3956C11.642 11.3956 12.8673 11.3956 13.6282 10.6342C14.3896 9.87333 14.3896 8.64795 14.3896 6.19782C14.3896 3.7477 14.3896 2.52231 13.6282 1.76148C12.8673 1 11.642 1 9.19183 1H6.59292C4.14279 1 2.91741 1 2.15658 1.76148C1.3951 2.52231 1.3951 3.7477 1.3951 6.19782C1.3951 8.64795 1.3951 9.87333 2.15658 10.6342C2.58085 11.0591 3.14936 11.2469 3.99401 11.3294" stroke="#B5B5B5" stroke-width="1.5" stroke-linecap="round" stroke-linejoin="round"/>
<path d="M9.19183 11.3956C8.38877 11.3956 7.50384 11.7205 6.69622 12.1396C5.39807 12.8133 4.74899 13.1505 4.42932 12.9355C4.10966 12.7211 4.17008 12.0551 4.29158 10.7238L4.31887 10.421" stroke="#B5B5B5" stroke-width="1.5" stroke-linecap="round"/>
</svg>
