<svg width="14" height="12" viewBox="0 0 14 12" fill="none" xmlns="http://www.w3.org/2000/svg">
<path d="M13.071 2.45916C12.8632 1.97793 12.5635 1.54185 12.1888 1.17532C11.8137 0.807695 11.3716 0.51555 10.8863 0.31477C10.3831 0.105747 9.84344 -0.0012432 9.29857 1.08985e-05C8.53415 1.08985e-05 7.78835 0.209333 7.14022 0.60472C6.98517 0.699303 6.83787 0.803189 6.69832 0.916378C6.55877 0.803189 6.41147 0.699303 6.25642 0.60472C5.60829 0.209333 4.86248 1.08985e-05 4.09807 1.08985e-05C3.54763 1.08985e-05 3.01424 0.105447 2.51032 0.31477C2.02345 0.51634 1.58465 0.80629 1.20787 1.17532C0.832635 1.54143 0.532887 1.97762 0.325615 2.45916C0.11009 2.95999 1.90735e-06 3.49182 1.90735e-06 4.03916C1.90735e-06 4.55549 0.105438 5.09352 0.314761 5.64086C0.489971 6.09827 0.741158 6.57273 1.06212 7.05185C1.5707 7.81006 2.26999 8.60084 3.13829 9.40246C4.57719 10.7313 6.00213 11.6492 6.0626 11.6864L6.43008 11.9221C6.59288 12.026 6.80221 12.026 6.96501 11.9221L7.33249 11.6864C7.39296 11.6476 8.81635 10.7313 10.2568 9.40246C11.1251 8.60084 11.8244 7.81006 12.333 7.05185C12.6539 6.57273 12.9067 6.09827 13.0803 5.64086C13.2896 5.09352 13.3951 4.55549 13.3951 4.03916C13.3966 3.49182 13.2865 2.95999 13.071 2.45916ZM6.69832 10.6956C6.69832 10.6956 1.17841 7.15884 1.17841 4.03916C1.17841 2.45916 2.48551 1.17842 4.09807 1.17842C5.23151 1.17842 6.21455 1.81104 6.69832 2.73516C7.18209 1.81104 8.16513 1.17842 9.29857 1.17842C10.9111 1.17842 12.2182 2.45916 12.2182 4.03916C12.2182 7.15884 6.69832 10.6956 6.69832 10.6956Z" fill="#B5B5B5"/>
</svg>
